<svg width="30" height="30" viewBox="0 0 309 309" fill="none" xmlns="http://www.w3.org/2000/svg">
<path fill-rule="evenodd" clip-rule="evenodd" d="M154.499 299.343C234.494 299.343 299.343 234.494 299.343 154.499C299.343 74.5042 234.494 9.6554 154.499 9.6554C74.5043 9.6554 9.65554 74.5042 9.65554 154.499C9.65554 234.494 74.5043 299.343 154.499 299.343ZM219.557 125.56C219.557 124.111 219.557 122.633 219.467 121.214C226.015 116.477 231.718 110.532 236.275 103.833C230.24 106.459 223.722 108.329 216.962 109.054C223.933 104.92 229.183 98.3714 231.688 90.6162C225.23 94.4184 217.988 97.2549 210.414 98.6732C204.288 92.1552 195.598 88.1116 185.942 88.1116C165.482 88.1116 148.463 106.549 153.201 129.332C139.869 128.666 126.827 125.203 114.922 119.168C103.016 113.132 92.5144 104.658 84.0983 94.2977C81.1713 99.2465 79.5418 104.95 79.5418 111.196C79.5455 116.714 80.9107 122.145 83.5163 127.009C86.1218 131.873 89.8873 136.019 94.4788 139.079C89.017 138.867 83.7966 137.328 79.3607 134.824V135.246C79.3452 142.983 82.0089 150.487 86.8991 156.483C91.7894 162.479 98.6046 166.597 106.187 168.138C100.876 169.496 96.229 169.496 91.0689 168.741C95.2935 182.019 107.666 191.675 122.391 191.977C110.894 200.969 96.4704 206.28 80.779 206.28C78.0028 206.28 75.4077 206.159 72.6919 205.858C87.5384 215.363 105.161 220.885 124.172 220.885C185.821 220.885 219.557 169.858 219.557 125.56Z" fill="#928A97"/>
</svg>
