<svg width="30" height="30" viewBox="0 0 309 309" fill="none" xmlns="http://www.w3.org/2000/svg">
<path fill-rule="evenodd" clip-rule="evenodd" d="M154.499 299.345C234.494 299.345 299.343 234.496 299.343 154.501C299.343 74.5062 234.494 9.65747 154.499 9.65747C74.504 9.65747 9.65527 74.5062 9.65527 154.501C9.65527 234.496 74.504 299.345 154.499 299.345ZM115.783 278.237C128.009 282.058 141.013 284.118 154.499 284.118C167.895 284.118 180.817 282.085 192.972 278.312V246.627C192.976 241.516 191.961 236.455 189.987 231.74C188.013 227.025 185.12 222.751 181.475 219.167C224.023 211.684 241.827 185.763 241.827 154.923C241.827 139.956 236.848 126.105 227.071 115C232.595 97.8251 226.873 83.1458 225.569 79.8012C225.505 79.6377 225.452 79.5013 225.411 79.393C209.116 77.9144 192.218 90.0451 188.808 92.6402C178.76 89.9244 167.353 88.4458 154.559 88.4458C141.824 88.4458 130.448 89.864 120.49 92.5497C119.072 91.4332 100.846 77.3109 83.3136 78.88C83.2805 78.965 83.2396 79.0677 83.1919 79.1877C81.9336 82.3499 75.9042 97.502 81.835 115.091C72.1788 126.166 67.2601 139.895 67.2601 154.833C67.2601 185.612 84.9431 211.503 127.37 219.107C122.301 224.026 118.619 230.363 116.899 237.454C109.023 239.415 93.4829 241.407 85.5164 229.608C74.5023 213.343 64.9969 207.338 55.6726 212.136C53.6027 214.525 56.2796 216.325 60.086 218.885C63.4934 221.176 67.8059 224.076 70.4286 228.552C70.8305 229.214 71.2092 230.361 71.6911 231.819C74.5021 240.328 80.8279 259.474 115.783 255.378V278.237Z" fill="#928A97"/>
</svg>
