<svg width="30" height="30" viewBox="0 0 309 309" fill="none" xmlns="http://www.w3.org/2000/svg">
<path d="M154.458 102.978C126.089 102.978 102.937 126.13 102.937 154.5C102.937 182.87 126.089 206.022 154.458 206.022C182.828 206.022 205.979 182.87 205.979 154.5C205.979 126.13 182.828 102.978 154.458 102.978ZM308.983 154.5C308.983 133.165 309.176 112.022 307.978 90.7257C306.78 65.9889 301.137 44.0351 283.048 25.9464C264.921 7.81902 243.007 2.21461 218.27 1.01642C196.935 -0.18176 175.793 0.0114965 154.497 0.0114965C133.162 0.0114965 112.02 -0.18176 90.724 1.01642C65.9877 2.21461 44.0343 7.85767 25.9459 25.9464C7.81887 44.0738 2.21457 65.9889 1.01641 90.7257C-0.181756 112.061 0.0114963 133.203 0.0114963 154.5C0.0114963 175.797 -0.181756 196.978 1.01641 218.274C2.21457 243.011 7.85753 264.965 25.9459 283.054C44.0729 301.181 65.9877 306.785 90.724 307.984C112.059 309.182 133.201 308.989 154.497 308.989C175.832 308.989 196.974 309.182 218.27 307.984C243.007 306.785 264.96 301.142 283.048 283.054C301.175 264.926 306.78 243.011 307.978 218.274C309.215 196.978 308.983 175.835 308.983 154.5ZM154.458 233.773C110.59 233.773 75.1865 198.369 75.1865 154.5C75.1865 110.631 110.59 75.2266 154.458 75.2266C198.327 75.2266 233.73 110.631 233.73 154.5C233.73 198.369 198.327 233.773 154.458 233.773ZM236.977 90.4938C226.735 90.4938 218.464 82.2224 218.464 71.9799C218.464 61.7373 226.735 53.466 236.977 53.466C247.219 53.466 255.491 61.7373 255.491 71.9799C255.494 74.412 255.017 76.8209 254.088 79.0684C253.158 81.316 251.795 83.3582 250.075 85.078C248.355 86.7978 246.313 88.1614 244.065 89.0907C241.818 90.02 239.409 90.4968 236.977 90.4938Z" fill="#928A97"/>
</svg>
