<svg width="30" height="30" viewBox="0 0 309 309" fill="none" xmlns="http://www.w3.org/2000/svg">
<path d="M154.5 0C69.1709 0 9.53674e-07 69.1709 9.53674e-07 154.5C9.53674e-07 239.829 69.1709 309 154.5 309C239.829 309 309 239.829 309 154.5C309 69.1709 239.829 0 154.5 0ZM116.68 218.537H85.3934V117.855H116.68V218.537ZM100.843 105.495C90.9619 105.495 84.5727 98.4938 84.5727 89.8353C84.5727 80.9998 91.155 74.2083 101.246 74.2083C111.337 74.2083 117.517 80.9998 117.71 89.8353C117.71 98.4938 111.337 105.495 100.843 105.495ZM230.945 218.537H199.659V162.74C199.659 149.752 195.121 140.933 183.807 140.933C175.164 140.933 170.03 146.904 167.761 152.649C166.924 154.693 166.715 157.59 166.715 160.471V218.521H135.413V149.962C135.413 137.392 135.01 126.883 134.592 117.838H161.774L163.207 131.824H163.834C167.954 125.258 178.045 115.569 194.928 115.569C215.511 115.569 230.945 129.362 230.945 159.006V218.537Z" fill="#928A97"/>
</svg>
