<svg width="573" height="40" viewBox="0 0 573 40" fill="none" xmlns="http://www.w3.org/2000/svg">
<path d="M0.0150927 38.8721H-0.829907C-0.829907 39.3388 -0.451588 39.7171 0.0150927 39.7171V38.8721ZM0.0150927 1.60048V0.755476C-0.451588 0.755476 -0.829907 1.1338 -0.829907 1.60048H0.0150927ZM20.1418 3.92713L19.6316 4.60075L19.6316 4.60075L20.1418 3.92713ZM18.6058 19.0843L18.2104 18.3375C17.8899 18.5072 17.7134 18.8625 17.7718 19.2204C17.8302 19.5784 18.1106 19.8591 18.4684 19.918L18.6058 19.0843ZM24.4789 22.066L23.8399 22.619L23.8399 22.619L24.4789 22.066ZM24.9984 33.9478L24.2841 33.4963L24.283 33.4981L24.9984 33.9478ZM20.7517 37.6072L21.1066 38.374L21.1094 38.3727L20.7517 37.6072ZM8.7344 16.08H7.8894C7.8894 16.5466 8.26772 16.925 8.7344 16.925V16.08ZM13.4555 15.0635L12.943 14.3916L12.9375 14.3958L13.4555 15.0635ZM13.5007 9.25811L12.9936 9.93413L12.9994 9.93838L13.5007 9.25811ZM8.7344 8.30938V7.46438C8.26772 7.46438 7.8894 7.8427 7.8894 8.30938H8.7344ZM8.7344 32.1407H7.8894C7.8894 32.6073 8.26772 32.9857 8.7344 32.9857V32.1407ZM15.8273 31.1016L15.349 30.4049L15.349 30.4049L15.8273 31.1016ZM15.7821 24.7089L15.2863 25.3932L15.2929 25.3979L15.7821 24.7089ZM8.7344 23.5795V22.7345C8.26772 22.7345 7.8894 23.1128 7.8894 23.5795H8.7344ZM0.860093 38.8721V1.60048H-0.829907V38.8721H0.860093ZM0.0150927 2.44548H11.7387V0.755476H0.0150927V2.44548ZM11.7387 2.44548C15.1778 2.44548 17.7774 3.19645 19.6316 4.60075L20.652 3.25352C18.4101 1.55561 15.4076 0.755476 11.7387 0.755476V2.44548ZM19.6316 4.60075C21.422 5.9567 22.3689 8.01978 22.3689 10.9523H24.0589C24.0589 7.62012 22.9577 4.99977 20.652 3.25352L19.6316 4.60075ZM22.3689 10.9523C22.3689 12.7354 22.0086 14.2116 21.3267 15.4149C20.6471 16.6141 19.621 17.5907 18.2104 18.3375L19.0011 19.8311C20.6626 18.9515 21.9406 17.7595 22.797 16.2481C23.6512 14.7407 24.0589 12.9641 24.0589 10.9523H22.3689ZM18.4684 19.918C20.8842 20.3159 22.6438 21.2368 23.8399 22.619L25.1178 21.5131C23.6032 19.7629 21.4474 18.6959 18.7431 18.2505L18.4684 19.918ZM23.8399 22.619C25.0338 23.9986 25.6669 25.8425 25.6669 28.2328H27.3569C27.3569 25.533 26.6346 23.2658 25.1178 21.5131L23.8399 22.619ZM25.6669 28.2328C25.6669 30.3147 25.1939 32.057 24.2841 33.4963L25.7127 34.3992C26.8209 32.646 27.3569 30.5783 27.3569 28.2328H25.6669ZM24.283 33.4981C23.3829 34.93 22.0973 36.0458 20.394 36.8416L21.1094 38.3727C23.0806 37.4518 24.6261 36.1279 25.7138 34.3975L24.283 33.4981ZM20.3968 36.8403C18.709 37.6214 16.6819 38.0271 14.2913 38.0271V39.7171C16.8702 39.7171 19.15 39.2795 21.1066 38.374L20.3968 36.8403ZM14.2913 38.0271H0.0150927V39.7171H14.2913V38.0271ZM8.7344 16.925H9.63796V15.235H8.7344V16.925ZM9.63796 16.925C11.4057 16.925 12.893 16.5694 13.9735 15.7311L12.9375 14.3958C12.2711 14.9129 11.2133 15.235 9.63796 15.235V16.925ZM13.9679 15.7353C15.0984 14.8731 15.6332 13.6269 15.6332 12.1269H13.9432C13.9432 13.187 13.5896 13.8985 12.943 14.3916L13.9679 15.7353ZM15.6332 12.1269C15.6332 10.6391 15.1211 9.40247 14.0019 8.57784L12.9994 9.93838C13.597 10.3787 13.9432 11.0546 13.9432 12.1269H15.6332ZM14.0077 8.58211C12.9506 7.78933 11.445 7.46438 9.63796 7.46438V9.15438C11.2946 9.15438 12.3641 9.46192 12.9937 9.93411L14.0077 8.58211ZM9.63796 7.46438H8.7344V9.15438H9.63796V7.46438ZM7.8894 8.30938V16.08H9.5794V8.30938H7.8894ZM8.7344 32.9857H11.2192V31.2957H8.7344V32.9857ZM11.2192 32.9857C13.348 32.9857 15.0888 32.6336 16.3056 31.7982L15.349 30.4049C14.5478 30.955 13.2166 31.2957 11.2192 31.2957V32.9857ZM16.3056 31.7982C17.58 30.9232 18.1858 29.5941 18.1858 27.9617H16.4958C16.4958 29.1304 16.0925 29.8945 15.349 30.4049L16.3056 31.7982ZM18.1858 27.9617C18.1858 26.2962 17.5636 24.9376 16.2714 24.02L15.2929 25.3979C16.0789 25.956 16.4958 26.7659 16.4958 27.9617H18.1858ZM16.278 24.0247C15.0342 23.1234 13.3071 22.7345 11.2192 22.7345V24.4245C13.137 24.4245 14.4519 24.7885 15.2863 25.3932L16.278 24.0247ZM11.2192 22.7345H8.7344V24.4245H11.2192V22.7345ZM7.8894 23.5795V32.1407H9.5794V23.5795H7.8894ZM39.7497 36.0937L39.1673 36.706L39.1711 36.7096L39.7497 36.0937ZM36.0451 1.60048V0.755476C35.5784 0.755476 35.2001 1.1338 35.2001 1.60048H36.0451ZM44.7644 1.60048H45.6094C45.6094 1.1338 45.2311 0.755476 44.7644 0.755476V1.60048ZM46.0971 29.2493L45.4201 29.7549L45.4242 29.7604L46.0971 29.2493ZM55.2682 29.2493L54.5953 28.7382L54.5912 28.7437L55.2682 29.2493ZM56.6236 1.60048V0.755476C56.1569 0.755476 55.7786 1.1338 55.7786 1.60048H56.6236ZM65.3429 1.60048H66.1879C66.1879 1.1338 65.8096 0.755476 65.3429 0.755476V1.60048ZM61.6383 36.0937L62.2187 36.7078L62.2207 36.706L61.6383 36.0937ZM50.7053 38.75C46.0122 38.75 42.6016 37.6135 40.3282 35.4778L39.1711 36.7096C41.8672 39.2423 45.7604 40.44 50.7053 40.44V38.75ZM40.332 35.4815C38.0821 33.3413 36.8901 30.1253 36.8901 25.6802H35.2001C35.2001 30.4213 36.4777 34.1476 39.1673 36.706L40.332 35.4815ZM36.8901 25.6802V1.60048H35.2001V25.6802H36.8901ZM36.0451 2.44548H44.7644V0.755476H36.0451V2.44548ZM43.9194 1.60048V23.1277H45.6094V1.60048H43.9194ZM43.9194 23.1277C43.9194 26.0551 44.3592 28.3344 45.4201 29.7549L46.7742 28.7437C46.0581 27.7848 45.6094 25.9831 45.6094 23.1277H43.9194ZM45.4242 29.7604C46.5494 31.2419 48.3876 31.8788 50.6827 31.8788V30.1888C48.6708 30.1888 47.452 29.6361 46.7701 28.7382L45.4242 29.7604ZM50.6827 31.8788C52.9891 31.8788 54.8334 31.2437 55.9452 29.7549L54.5912 28.7437C53.9261 29.6342 52.7133 30.1888 50.6827 30.1888V31.8788ZM55.9411 29.7604C57.0209 28.3387 57.4686 26.0567 57.4686 23.1277H55.7786C55.7786 25.9815 55.3227 27.7805 54.5953 28.7382L55.9411 29.7604ZM57.4686 23.1277V1.60048H55.7786V23.1277H57.4686ZM56.6236 2.44548H65.3429V0.755476H56.6236V2.44548ZM64.4979 1.60048V25.6802H66.1879V1.60048H64.4979ZM64.4979 25.6802C64.4979 30.1253 63.3058 33.3413 61.0559 35.4815L62.2207 36.706C64.9102 34.1476 66.1879 30.4213 66.1879 25.6802H64.4979ZM61.0579 35.4796C58.8003 37.6133 55.3988 38.75 50.7053 38.75V40.44C55.6497 40.44 59.5369 39.2425 62.2187 36.7078L61.0579 35.4796ZM78.6534 38.8721H77.8084C77.8084 39.3388 78.1867 39.7171 78.6534 39.7171V38.8721ZM78.6534 1.60048V0.755476C78.1867 0.755476 77.8084 1.1338 77.8084 1.60048H78.6534ZM96.9278 3.02358L97.2532 2.24373L97.2532 2.24373L96.9278 3.02358ZM102.891 6.99922L102.294 7.59673L102.296 7.59935L102.891 6.99922ZM106.889 12.9627L106.11 13.2881L106.112 13.2943L106.889 12.9627ZM106.912 27.6003L107.691 27.9275L107.691 27.9275L106.912 27.6003ZM102.914 33.5186L102.322 32.9158L102.319 32.9184L102.914 33.5186ZM96.9278 37.4716L97.2487 38.2533L97.2513 38.2522L96.9278 37.4716ZM87.3501 31.079H86.5051C86.5051 31.5457 86.8834 31.924 87.3501 31.924V31.079ZM92.7037 30.2884L93.0287 31.0684L93.0365 31.065L92.7037 30.2884ZM95.9791 28.0295L95.3676 27.4463L95.3674 27.4465L95.9791 28.0295ZM98.1476 24.596L97.3624 24.2837L97.3606 24.2884L98.1476 24.596ZM98.1702 15.9218L97.382 16.2264L97.3831 16.2294L98.1702 15.9218ZM96.0016 12.4657L95.3902 13.049L95.3902 13.049L96.0016 12.4657ZM92.7037 10.2068L92.3708 10.9836L92.3787 10.9868L92.7037 10.2068ZM87.3501 9.39364V8.54864C86.8834 8.54864 86.5051 8.92696 86.5051 9.39364H87.3501ZM79.4984 38.8721V1.60048H77.8084V38.8721H79.4984ZM78.6534 2.44548H89.5412V0.755476H78.6534V2.44548ZM89.5412 2.44548C92.0885 2.44548 94.4392 2.90087 96.6024 3.80342L97.2532 2.24373C94.8685 1.24881 92.2948 0.755476 89.5412 0.755476V2.44548ZM96.6024 3.80342C98.7771 4.71074 100.672 5.97486 102.294 7.59673L103.489 6.40172C101.707 4.62019 99.6264 3.23387 97.2532 2.24373L96.6024 3.80342ZM102.296 7.59935C103.932 9.22102 105.203 11.115 106.11 13.2881L107.669 12.6373C106.679 10.2625 105.284 8.18081 103.486 6.39909L102.296 7.59935ZM106.112 13.2943C107.028 15.4415 107.49 17.7674 107.49 20.2815H109.18C109.18 17.5549 108.678 15.0017 107.667 12.6311L106.112 13.2943ZM107.49 20.2815C107.49 22.7973 107.035 25.1248 106.133 27.2731L107.691 27.9275C108.686 25.558 109.18 23.0063 109.18 20.2815H107.49ZM106.133 27.2731C105.227 29.4305 103.957 31.3092 102.322 32.9158L103.506 34.1213C105.304 32.3547 106.7 30.2878 107.691 27.9275L106.133 27.2731ZM102.319 32.9184C100.698 34.5252 98.7955 35.7828 96.6042 36.691L97.2513 38.2522C99.6381 37.263 101.726 35.8852 103.509 34.1187L102.319 32.9184ZM96.6068 36.69C94.4425 37.5786 92.0902 38.0271 89.5412 38.0271V39.7171C92.293 39.7171 94.8652 39.232 97.2487 38.2533L96.6068 36.69ZM89.5412 38.0271H78.6534V39.7171H89.5412V38.0271ZM87.3501 31.924H88.5247V30.234H87.3501V31.924ZM88.5247 31.924C90.145 31.924 91.6499 31.6428 93.0287 31.0684L92.3787 29.5084C91.2274 29.9881 89.9464 30.234 88.5247 30.234V31.924ZM93.0365 31.065C94.403 30.4794 95.5906 29.6618 96.5907 28.6125L95.3674 27.4465C94.5303 28.3247 93.5343 29.013 92.3708 29.5117L93.0365 31.065ZM96.5905 28.6127C97.6031 27.5511 98.3842 26.312 98.9346 24.9035L97.3606 24.2884C96.8869 25.5003 96.2223 26.5501 95.3676 27.4463L96.5905 28.6127ZM98.9328 24.9083C99.5034 23.4734 99.7832 21.9129 99.7832 20.2363H98.0932C98.0932 21.7222 97.8459 23.0681 97.3624 24.2837L98.9328 24.9083ZM99.7832 20.2363C99.7832 18.5768 99.5116 17.0329 98.9572 15.6143L97.3831 16.2294C97.8527 17.431 98.0932 18.7635 98.0932 20.2363H99.7832ZM98.9584 15.6173C98.4084 14.1938 97.6273 12.9457 96.6131 11.8825L95.3902 13.049C96.2434 13.9434 96.9079 14.9995 97.382 16.2264L98.9584 15.6173ZM96.6131 11.8825C95.5975 10.8178 94.4003 9.99835 93.0287 9.42684L92.3787 10.9868C93.537 11.4695 94.5384 12.156 95.3902 13.049L96.6131 11.8825ZM93.0365 9.43017C91.6558 8.83843 90.1481 8.54864 88.5247 8.54864V10.2386C89.9434 10.2386 91.2216 10.491 92.3708 10.9835L93.0365 9.43017ZM88.5247 8.54864H87.3501V10.2386H88.5247V8.54864ZM86.5051 9.39364V31.079H88.1951V9.39364H86.5051ZM119.349 38.8721H118.504C118.504 39.3388 118.882 39.7171 119.349 39.7171V38.8721ZM119.349 1.60048V0.755476C118.882 0.755476 118.504 1.1338 118.504 1.60048H119.349ZM137.623 3.02358L137.948 2.24373L137.948 2.24373L137.623 3.02358ZM143.587 6.99922L142.989 7.59673L142.992 7.59935L143.587 6.99922ZM147.585 12.9627L146.805 13.2881L146.808 13.2943L147.585 12.9627ZM147.607 27.6003L148.386 27.9275L148.386 27.9275L147.607 27.6003ZM143.609 33.5186L143.017 32.9158L143.014 32.9184L143.609 33.5186ZM137.623 37.4716L137.944 38.2533L137.947 38.2522L137.623 37.4716ZM128.045 31.079H127.2C127.2 31.5457 127.579 31.924 128.045 31.924V31.079ZM133.399 30.2884L133.724 31.0684L133.732 31.065L133.399 30.2884ZM136.674 28.0295L136.063 27.4463L136.063 27.4465L136.674 28.0295ZM138.843 24.596L138.058 24.2837L138.056 24.2884L138.843 24.596ZM138.865 15.9218L138.077 16.2264L138.078 16.2294L138.865 15.9218ZM136.697 12.4657L136.085 13.049L136.085 13.049L136.697 12.4657ZM133.399 10.2068L133.066 10.9836L133.074 10.9868L133.399 10.2068ZM128.045 9.39364V8.54864C127.579 8.54864 127.2 8.92696 127.2 9.39364H128.045ZM120.194 38.8721V1.60048H118.504V38.8721H120.194ZM119.349 2.44548H130.237V0.755476H119.349V2.44548ZM130.237 2.44548C132.784 2.44548 135.134 2.90087 137.298 3.80342L137.948 2.24373C135.564 1.24881 132.99 0.755476 130.237 0.755476V2.44548ZM137.298 3.80342C139.472 4.71074 141.367 5.97486 142.989 7.59673L144.184 6.40172C142.403 4.62019 140.322 3.23387 137.948 2.24373L137.298 3.80342ZM142.992 7.59935C144.628 9.22102 145.898 11.115 146.805 13.2881L148.365 12.6373C147.374 10.2625 145.979 8.18081 144.181 6.39909L142.992 7.59935ZM146.808 13.2943C147.724 15.4415 148.185 17.7674 148.185 20.2815H149.875C149.875 17.5549 149.373 15.0017 148.362 12.6311L146.808 13.2943ZM148.185 20.2815C148.185 22.7973 147.731 25.1248 146.828 27.2731L148.386 27.9275C149.382 25.558 149.875 23.0063 149.875 20.2815H148.185ZM146.828 27.2731C145.922 29.4305 144.652 31.3092 143.017 32.9158L144.201 34.1213C146 32.3547 147.395 30.2878 148.386 27.9275L146.828 27.2731ZM143.014 32.9184C141.393 34.5252 139.491 35.7828 137.3 36.691L137.947 38.2522C140.333 37.263 142.422 35.8852 144.204 34.1187L143.014 32.9184ZM137.302 36.69C135.138 37.5786 132.786 38.0271 130.237 38.0271V39.7171C132.988 39.7171 135.561 39.232 137.944 38.2533L137.302 36.69ZM130.237 38.0271H119.349V39.7171H130.237V38.0271ZM128.045 31.924H129.22V30.234H128.045V31.924ZM129.22 31.924C130.84 31.924 132.345 31.6428 133.724 31.0684L133.074 29.5084C131.923 29.9881 130.642 30.234 129.22 30.234V31.924ZM133.732 31.065C135.098 30.4794 136.286 29.6618 137.286 28.6125L136.063 27.4465C135.226 28.3247 134.23 29.013 133.066 29.5117L133.732 31.065ZM137.286 28.6127C138.298 27.5511 139.079 26.312 139.63 24.9035L138.056 24.2884C137.582 25.5003 136.918 26.5501 136.063 27.4463L137.286 28.6127ZM139.628 24.9083C140.199 23.4734 140.478 21.9129 140.478 20.2363H138.788C138.788 21.7222 138.541 23.0681 138.058 24.2837L139.628 24.9083ZM140.478 20.2363C140.478 18.5768 140.207 17.0329 139.653 15.6143L138.078 16.2294C138.548 17.431 138.788 18.7635 138.788 20.2363H140.478ZM139.654 15.6173C139.104 14.1938 138.323 12.9457 137.308 11.8825L136.085 13.049C136.939 13.9434 137.603 14.9995 138.077 16.2264L139.654 15.6173ZM137.308 11.8825C136.293 10.8178 135.096 9.99835 133.724 9.42684L133.074 10.9868C134.232 11.4695 135.234 12.156 136.085 13.049L137.308 11.8825ZM133.732 9.43017C132.351 8.83843 130.843 8.54864 129.22 8.54864V10.2386C130.639 10.2386 131.917 10.491 133.066 10.9835L133.732 9.43017ZM129.22 8.54864H128.045V10.2386H129.22V8.54864ZM127.2 9.39364V31.079H128.89V9.39364H127.2ZM160.044 38.8721H159.199C159.199 39.3388 159.577 39.7171 160.044 39.7171V38.8721ZM160.044 1.60048V0.755476C159.577 0.755476 159.199 1.1338 159.199 1.60048H160.044ZM168.741 1.60048H169.586C169.586 1.1338 169.207 0.755476 168.741 0.755476V1.60048ZM168.741 16.3736H167.896C167.896 16.8403 168.274 17.2186 168.741 17.2186V16.3736ZM180.351 16.3736V17.2186C180.818 17.2186 181.196 16.8403 181.196 16.3736H180.351ZM180.351 1.60048V0.755476C179.885 0.755476 179.506 1.1338 179.506 1.60048H180.351ZM189.071 1.60048H189.916C189.916 1.1338 189.537 0.755476 189.071 0.755476V1.60048ZM189.071 38.8721V39.7171C189.537 39.7171 189.916 39.3388 189.916 38.8721H189.071ZM180.351 38.8721H179.506C179.506 39.3388 179.885 39.7171 180.351 39.7171V38.8721ZM180.351 24.0087H181.196C181.196 23.542 180.818 23.1637 180.351 23.1637V24.0087ZM168.741 24.0087V23.1637C168.274 23.1637 167.896 23.542 167.896 24.0087H168.741ZM168.741 38.8721V39.7171C169.207 39.7171 169.586 39.3388 169.586 38.8721H168.741ZM160.889 38.8721V1.60048H159.199V38.8721H160.889ZM160.044 2.44548H168.741V0.755476H160.044V2.44548ZM167.896 1.60048V16.3736H169.586V1.60048H167.896ZM168.741 17.2186H180.351V15.5286H168.741V17.2186ZM181.196 16.3736V1.60048H179.506V16.3736H181.196ZM180.351 2.44548H189.071V0.755476H180.351V2.44548ZM188.226 1.60048V38.8721H189.916V1.60048H188.226ZM189.071 38.0271H180.351V39.7171H189.071V38.0271ZM181.196 38.8721V24.0087H179.506V38.8721H181.196ZM180.351 23.1637H168.741V24.8537H180.351V23.1637ZM167.896 24.0087V38.8721H169.586V24.0087H167.896ZM168.741 38.0271H160.044V39.7171H168.741V38.0271ZM198.04 38.8721L197.257 38.5551C197.152 38.8155 197.182 39.1114 197.34 39.3444C197.497 39.5774 197.759 39.7171 198.04 39.7171V38.8721ZM213.13 1.60048V0.755476C212.785 0.755476 212.476 0.964298 212.346 1.28338L213.13 1.60048ZM221.216 1.60048L222 1.28379C221.871 0.96449 221.561 0.755476 221.216 0.755476V1.60048ZM236.283 38.8721V39.7171C236.564 39.7171 236.827 39.5775 236.984 39.3446C237.141 39.1117 237.172 38.8159 237.067 38.5555L236.283 38.8721ZM226.909 38.8721L226.115 39.1629C226.237 39.4958 226.554 39.7171 226.909 39.7171V38.8721ZM224.243 31.5985L225.037 31.3078C224.915 30.9749 224.598 30.7535 224.243 30.7535V31.5985ZM210.103 31.5985V30.7535C209.749 30.7535 209.433 30.9738 209.31 31.3056L210.103 31.5985ZM207.415 38.8721V39.7171C207.768 39.7171 208.085 39.4968 208.207 39.1651L207.415 38.8721ZM213.062 23.9635L212.275 23.6566C212.173 23.9167 212.207 24.2099 212.364 24.4403C212.522 24.6707 212.783 24.8085 213.062 24.8085V23.9635ZM221.262 23.9635V24.8085C221.54 24.8085 221.801 24.671 221.959 24.441C222.116 24.211 222.15 23.918 222.05 23.6581L221.262 23.9635ZM217.173 13.4145L217.961 13.1091C217.835 12.7841 217.522 12.5698 217.174 12.5695C216.825 12.5691 216.512 12.7829 216.386 13.1076L217.173 13.4145ZM198.823 39.1892L213.913 1.91757L212.346 1.28338L197.257 38.5551L198.823 39.1892ZM213.13 2.44548H221.216V0.755476H213.13V2.44548ZM220.433 1.91716L235.5 39.1888L237.067 38.5555L222 1.28379L220.433 1.91716ZM236.283 38.0271H226.909V39.7171H236.283V38.0271ZM227.702 38.5814L225.037 31.3078L223.45 31.8893L226.115 39.1629L227.702 38.5814ZM224.243 30.7535H210.103V32.4435H224.243V30.7535ZM209.31 31.3056L206.622 38.5792L208.207 39.1651L210.895 31.8914L209.31 31.3056ZM207.415 38.0271H198.04V39.7171H207.415V38.0271ZM213.062 24.8085H221.262V23.1185H213.062V24.8085ZM222.05 23.6581L217.961 13.1091L216.385 13.7198L220.474 24.2688L222.05 23.6581ZM216.386 13.1076L212.275 23.6566L213.849 24.2703L217.96 13.7213L216.386 13.1076ZM245.229 38.8721H244.384C244.384 39.3388 244.762 39.7171 245.229 39.7171V38.8721ZM245.229 1.60048V0.755476C244.762 0.755476 244.384 1.1338 244.384 1.60048H245.229ZM263.503 3.02358L263.829 2.24373L263.829 2.24373L263.503 3.02358ZM269.467 6.99922L268.869 7.59673L268.872 7.59935L269.467 6.99922ZM273.465 12.9627L272.685 13.2881L272.688 13.2943L273.465 12.9627ZM273.487 27.6003L274.267 27.9275L274.267 27.9275L273.487 27.6003ZM269.489 33.5186L268.897 32.9158L268.894 32.9184L269.489 33.5186ZM263.503 37.4716L263.824 38.2533L263.827 38.2522L263.503 37.4716ZM253.926 31.079H253.081C253.081 31.5457 253.459 31.924 253.926 31.924V31.079ZM259.279 30.2884L259.604 31.0684L259.612 31.065L259.279 30.2884ZM262.554 28.0295L261.943 27.4463L261.943 27.4465L262.554 28.0295ZM264.723 24.596L263.938 24.2837L263.936 24.2884L264.723 24.596ZM264.746 15.9218L263.957 16.2264L263.959 16.2294L264.746 15.9218ZM262.577 12.4657L261.966 13.049L261.966 13.049L262.577 12.4657ZM259.279 10.2068L258.946 10.9836L258.954 10.9868L259.279 10.2068ZM253.926 9.39364V8.54864C253.459 8.54864 253.081 8.92696 253.081 9.39364H253.926ZM246.074 38.8721V1.60048H244.384V38.8721H246.074ZM245.229 2.44548H256.117V0.755476H245.229V2.44548ZM256.117 2.44548C258.664 2.44548 261.015 2.90087 263.178 3.80342L263.829 2.24373C261.444 1.24881 258.87 0.755476 256.117 0.755476V2.44548ZM263.178 3.80342C265.353 4.71074 267.247 5.97486 268.869 7.59673L270.064 6.40172C268.283 4.62019 266.202 3.23387 263.829 2.24373L263.178 3.80342ZM268.872 7.59935C270.508 9.22102 271.778 11.115 272.685 13.2881L274.245 12.6373C273.254 10.2625 271.859 8.18081 270.062 6.39909L268.872 7.59935ZM272.688 13.2943C273.604 15.4415 274.066 17.7674 274.066 20.2815H275.756C275.756 17.5549 275.254 15.0017 274.242 12.6311L272.688 13.2943ZM274.066 20.2815C274.066 22.7973 273.611 25.1248 272.708 27.2731L274.267 27.9275C275.262 25.558 275.756 23.0063 275.756 20.2815H274.066ZM272.708 27.2731C271.802 29.4305 270.532 31.3092 268.897 32.9158L270.081 34.1213C271.88 32.3547 273.275 30.2878 274.267 27.9275L272.708 27.2731ZM268.894 32.9184C267.273 34.5252 265.371 35.7828 263.18 36.691L263.827 38.2522C266.214 37.263 268.302 35.8852 270.084 34.1187L268.894 32.9184ZM263.182 36.69C261.018 37.5786 258.666 38.0271 256.117 38.0271V39.7171C258.868 39.7171 261.441 39.232 263.824 38.2533L263.182 36.69ZM256.117 38.0271H245.229V39.7171H256.117V38.0271ZM253.926 31.924H255.1V30.234H253.926V31.924ZM255.1 31.924C256.72 31.924 258.225 31.6428 259.604 31.0684L258.954 29.5084C257.803 29.9881 256.522 30.234 255.1 30.234V31.924ZM259.612 31.065C260.978 30.4794 262.166 29.6618 263.166 28.6125L261.943 27.4465C261.106 28.3247 260.11 29.013 258.946 29.5117L259.612 31.065ZM263.166 28.6127C264.179 27.5511 264.96 26.312 265.51 24.9035L263.936 24.2884C263.462 25.5003 262.798 26.5501 261.943 27.4463L263.166 28.6127ZM265.508 24.9083C266.079 23.4734 266.359 21.9129 266.359 20.2363H264.669C264.669 21.7222 264.421 23.0681 263.938 24.2837L265.508 24.9083ZM266.359 20.2363C266.359 18.5768 266.087 17.0329 265.533 15.6143L263.959 16.2294C264.428 17.431 264.669 18.7635 264.669 20.2363H266.359ZM265.534 15.6173C264.984 14.1938 264.203 12.9457 263.189 11.8825L261.966 13.049C262.819 13.9434 263.483 14.9995 263.957 16.2264L265.534 15.6173ZM263.189 11.8825C262.173 10.8178 260.976 9.99835 259.604 9.42684L258.954 10.9868C260.112 11.4695 261.114 12.156 261.966 13.049L263.189 11.8825ZM259.612 9.43017C258.231 8.83843 256.723 8.54864 255.1 8.54864V10.2386C256.519 10.2386 257.797 10.491 258.946 10.9835L259.612 9.43017ZM255.1 8.54864H253.926V10.2386H255.1V8.54864ZM253.081 9.39364V31.079H254.771V9.39364H253.081ZM285.924 38.8721H285.079C285.079 39.3388 285.457 39.7171 285.924 39.7171V38.8721ZM285.924 1.60048V0.755476C285.457 0.755476 285.079 1.1338 285.079 1.60048H285.924ZM307.338 1.60048H308.183C308.183 1.1338 307.805 0.755476 307.338 0.755476V1.60048ZM307.338 9.23552V10.0805C307.805 10.0805 308.183 9.7022 308.183 9.23552H307.338ZM294.621 9.23552V8.39052C294.154 8.39052 293.776 8.76884 293.776 9.23552H294.621ZM294.621 16.3736H293.776C293.776 16.8403 294.154 17.2186 294.621 17.2186V16.3736ZM306.796 16.3736H307.641C307.641 15.9069 307.263 15.5286 306.796 15.5286V16.3736ZM306.796 24.0087V24.8537C307.263 24.8537 307.641 24.4753 307.641 24.0087H306.796ZM294.621 24.0087V23.1637C294.154 23.1637 293.776 23.542 293.776 24.0087H294.621ZM294.621 31.2371H293.776C293.776 31.7038 294.154 32.0821 294.621 32.0821V31.2371ZM307.338 31.2371H308.183C308.183 30.7704 307.805 30.3921 307.338 30.3921V31.2371ZM307.338 38.8721V39.7171C307.805 39.7171 308.183 39.3388 308.183 38.8721H307.338ZM286.769 38.8721V1.60048H285.079V38.8721H286.769ZM285.924 2.44548H307.338V0.755476H285.924V2.44548ZM306.493 1.60048V9.23552H308.183V1.60048H306.493ZM307.338 8.39052H294.621V10.0805H307.338V8.39052ZM293.776 9.23552V16.3736H295.466V9.23552H293.776ZM294.621 17.2186H306.796V15.5286H294.621V17.2186ZM305.951 16.3736V24.0087H307.641V16.3736H305.951ZM306.796 23.1637H294.621V24.8537H306.796V23.1637ZM293.776 24.0087V31.2371H295.466V24.0087H293.776ZM294.621 32.0821H307.338V30.3921H294.621V32.0821ZM306.493 31.2371V38.8721H308.183V31.2371H306.493ZM307.338 38.0271H285.924V39.7171H307.338V38.0271ZM318.342 38.8721H317.497C317.497 39.3388 317.875 39.7171 318.342 39.7171V38.8721ZM318.342 1.60048V0.755476C317.875 0.755476 317.497 1.1338 317.497 1.60048H318.342ZM338.469 3.92713L337.959 4.60075L337.959 4.60075L338.469 3.92713ZM336.933 19.0843L336.537 18.3375C336.217 18.5072 336.04 18.8625 336.099 19.2204C336.157 19.5784 336.437 19.8591 336.795 19.918L336.933 19.0843ZM342.806 22.066L342.167 22.619L342.167 22.619L342.806 22.066ZM343.325 33.9478L342.611 33.4963L342.61 33.4981L343.325 33.9478ZM339.079 37.6072L339.433 38.374L339.436 38.3727L339.079 37.6072ZM327.061 16.08H326.216C326.216 16.5466 326.595 16.925 327.061 16.925V16.08ZM331.782 15.0635L331.27 14.3916L331.264 14.3958L331.782 15.0635ZM331.828 9.25811L331.321 9.93413L331.326 9.93838L331.828 9.25811ZM327.061 8.30938V7.46438C326.595 7.46438 326.216 7.8427 326.216 8.30938H327.061ZM327.061 32.1407H326.216C326.216 32.6073 326.595 32.9857 327.061 32.9857V32.1407ZM334.154 31.1016L333.676 30.4049L333.676 30.4049L334.154 31.1016ZM334.109 24.7089L333.613 25.3932L333.62 25.3979L334.109 24.7089ZM327.061 23.5795V22.7345C326.595 22.7345 326.216 23.1128 326.216 23.5795H327.061ZM319.187 38.8721V1.60048H317.497V38.8721H319.187ZM318.342 2.44548H330.066V0.755476H318.342V2.44548ZM330.066 2.44548C333.505 2.44548 336.104 3.19645 337.959 4.60075L338.979 3.25352C336.737 1.55561 333.734 0.755476 330.066 0.755476V2.44548ZM337.959 4.60075C339.749 5.9567 340.696 8.01978 340.696 10.9523H342.386C342.386 7.62012 341.285 4.99977 338.979 3.25352L337.959 4.60075ZM340.696 10.9523C340.696 12.7354 340.335 14.2116 339.654 15.4149C338.974 16.6141 337.948 17.5907 336.537 18.3375L337.328 19.8311C338.989 18.9515 340.267 17.7595 341.124 16.2481C341.978 14.7407 342.386 12.9641 342.386 10.9523H340.696ZM336.795 19.918C339.211 20.3159 340.971 21.2368 342.167 22.619L343.445 21.5131C341.93 19.7629 339.774 18.6959 337.07 18.2505L336.795 19.918ZM342.167 22.619C343.361 23.9986 343.994 25.8425 343.994 28.2328H345.684C345.684 25.533 344.961 23.2658 343.445 21.5131L342.167 22.619ZM343.994 28.2328C343.994 30.3147 343.521 32.057 342.611 33.4963L344.04 34.3992C345.148 32.646 345.684 30.5783 345.684 28.2328H343.994ZM342.61 33.4981C341.71 34.93 340.424 36.0458 338.721 36.8416L339.436 38.3727C341.407 37.4518 342.953 36.1279 344.041 34.3975L342.61 33.4981ZM338.724 36.8403C337.036 37.6214 335.009 38.0271 332.618 38.0271V39.7171C335.197 39.7171 337.477 39.2795 339.433 38.374L338.724 36.8403ZM332.618 38.0271H318.342V39.7171H332.618V38.0271ZM327.061 16.925H327.965V15.235H327.061V16.925ZM327.965 16.925C329.733 16.925 331.22 16.5694 332.3 15.7311L331.264 14.3958C330.598 14.9129 329.54 15.235 327.965 15.235V16.925ZM332.295 15.7353C333.425 14.8731 333.96 13.6269 333.96 12.1269H332.27C332.27 13.187 331.916 13.8985 331.27 14.3916L332.295 15.7353ZM333.96 12.1269C333.96 10.6391 333.448 9.40247 332.329 8.57784L331.326 9.93838C331.924 10.3787 332.27 11.0546 332.27 12.1269H333.96ZM332.335 8.58211C331.277 7.78933 329.772 7.46438 327.965 7.46438V9.15438C329.621 9.15438 330.691 9.46192 331.321 9.93411L332.335 8.58211ZM327.965 7.46438H327.061V9.15438H327.965V7.46438ZM326.216 8.30938V16.08H327.906V8.30938H326.216ZM327.061 32.9857H329.546V31.2957H327.061V32.9857ZM329.546 32.9857C331.675 32.9857 333.416 32.6336 334.632 31.7982L333.676 30.4049C332.875 30.955 331.543 31.2957 329.546 31.2957V32.9857ZM334.632 31.7982C335.907 30.9232 336.513 29.5941 336.513 27.9617H334.823C334.823 29.1304 334.419 29.8945 333.676 30.4049L334.632 31.7982ZM336.513 27.9617C336.513 26.2962 335.89 24.9376 334.598 24.02L333.62 25.3979C334.406 25.956 334.823 26.7659 334.823 27.9617H336.513ZM334.605 24.0247C333.361 23.1234 331.634 22.7345 329.546 22.7345V24.4245C331.464 24.4245 332.779 24.7885 333.613 25.3932L334.605 24.0247ZM329.546 22.7345H327.061V24.4245H329.546V22.7345ZM326.216 23.5795V32.1407H327.906V23.5795H326.216ZM371.965 38.8721H371.12C371.12 39.3388 371.498 39.7171 371.965 39.7171V38.8721ZM371.965 1.60048V0.755476C371.498 0.755476 371.12 1.1338 371.12 1.60048H371.965ZM380.662 1.60048H381.507C381.507 1.1338 381.128 0.755476 380.662 0.755476V1.60048ZM380.662 16.5995H379.817C379.817 16.9548 380.039 17.2721 380.373 17.3936C380.706 17.515 381.081 17.4147 381.309 17.1426L380.662 16.5995ZM393.244 1.60048V0.755476C392.994 0.755476 392.757 0.866018 392.596 1.05741L393.244 1.60048ZM403.86 1.60048L404.503 2.14952C404.717 1.89883 404.766 1.54639 404.628 1.24686C404.49 0.94734 404.19 0.755476 403.86 0.755476V1.60048ZM388.703 19.3328L388.061 18.7837C387.786 19.1055 387.791 19.5813 388.074 19.8966L388.703 19.3328ZM406.21 38.8721V39.7171C406.543 39.7171 406.845 39.5212 406.981 39.2168C407.117 38.9124 407.061 38.5566 406.839 38.3083L406.21 38.8721ZM394.215 38.8721L393.582 39.4317C393.742 39.6132 393.973 39.7171 394.215 39.7171V38.8721ZM380.662 23.5343L381.295 22.9748C381.062 22.7115 380.691 22.6197 380.362 22.744C380.034 22.8684 379.817 23.183 379.817 23.5343H380.662ZM380.662 38.8721V39.7171C381.128 39.7171 381.507 39.3388 381.507 38.8721H380.662ZM372.81 38.8721V1.60048H371.12V38.8721H372.81ZM371.965 2.44548H380.662V0.755476H371.965V2.44548ZM379.817 1.60048V16.5995H381.507V1.60048H379.817ZM381.309 17.1426L393.891 2.14354L392.596 1.05741L380.014 16.0564L381.309 17.1426ZM393.244 2.44548H403.86V0.755476H393.244V2.44548ZM403.218 1.05143L388.061 18.7837L389.346 19.8818L404.503 2.14952L403.218 1.05143ZM388.074 19.8966L405.58 39.436L406.839 38.3083L389.333 18.7689L388.074 19.8966ZM406.21 38.0271H394.215V39.7171H406.21V38.0271ZM394.848 38.3126L381.295 22.9748L380.028 24.0938L393.582 39.4317L394.848 38.3126ZM379.817 23.5343V38.8721H381.507V23.5343H379.817ZM380.662 38.0271H371.965V39.7171H380.662V38.0271ZM423.362 38.1041L423.7 37.3299L423.7 37.3299L423.362 38.1041ZM417.376 33.9704L416.768 34.5575L416.77 34.5601L417.376 33.9704ZM413.332 27.8036L412.55 28.1243L412.553 28.1304L413.332 27.8036ZM413.332 12.7368L412.552 12.4118L412.551 12.4143L413.332 12.7368ZM417.376 6.57003L417.981 7.15973L417.983 7.15715L417.376 6.57003ZM443.985 6.57003L443.378 7.15715L443.38 7.15973L443.985 6.57003ZM448.006 12.7368L447.224 13.0575L447.227 13.0636L448.006 12.7368ZM448.006 27.8036L447.226 27.4786L447.225 27.4811L448.006 27.8036ZM443.985 33.9704L444.59 34.5601L444.593 34.5575L443.985 33.9704ZM437.999 38.1041L437.661 37.3299L437.661 37.3299L437.999 38.1041ZM434.475 30.4013L434.126 29.632L434.122 29.6338L434.475 30.4013ZM437.457 28.165L436.817 27.6135L436.816 27.6143L437.457 28.165ZM439.4 24.7089L438.602 24.431L438.6 24.4363L439.4 24.7089ZM439.4 15.8315L438.599 16.1014L438.603 16.1122L439.4 15.8315ZM437.457 12.3754L436.812 12.9213L436.821 12.9318L437.457 12.3754ZM434.475 10.1165L434.122 10.884L434.126 10.8857L434.475 10.1165ZM426.863 10.1165L426.513 9.34722L426.509 9.34897L426.863 10.1165ZM423.881 12.3754L423.241 11.8238L423.24 11.8246L423.881 12.3754ZM421.938 15.8315L421.14 15.5535L421.139 15.5588L421.938 15.8315ZM421.938 24.7089L421.138 24.9788L421.142 24.9897L421.938 24.7089ZM423.881 28.165L423.236 28.7109L423.245 28.7214L423.881 28.165ZM426.863 30.4013L426.509 31.1688L426.513 31.1706L426.863 30.4013ZM430.68 38.75C428.186 38.75 425.862 38.2748 423.7 37.3299L423.023 38.8784C425.409 39.9213 427.965 40.44 430.68 40.44V38.75ZM423.7 37.3299C421.525 36.3793 419.621 35.0637 417.981 33.3807L416.77 34.5601C418.564 36.4009 420.65 37.8412 423.023 38.8784L423.7 37.3299ZM417.983 33.3832C416.341 31.6835 415.051 29.7167 414.111 27.4768L412.553 28.1304C413.571 30.5588 414.976 32.7032 416.768 34.5575L417.983 33.3832ZM414.114 27.4829C413.194 25.241 412.731 22.8357 412.731 20.2589H411.041C411.041 23.0432 411.543 25.6677 412.55 28.1243L414.114 27.4829ZM412.731 20.2589C412.731 17.6821 413.194 15.285 414.113 13.0593L412.551 12.4143C411.543 14.8569 411.041 17.4746 411.041 20.2589H412.731ZM414.112 13.0618C415.051 10.8076 416.341 8.84261 417.981 7.15973L416.77 5.98034C414.977 7.82132 413.571 9.96755 412.552 12.4118L414.112 13.0618ZM417.983 7.15715C419.623 5.45988 421.527 4.13786 423.7 3.18795L423.023 1.63941C420.649 2.67732 418.562 4.12619 416.768 5.98292L417.983 7.15715ZM423.7 3.18795C425.862 2.243 428.186 1.76781 430.68 1.76781V0.0778097C427.965 0.0778097 425.409 0.596534 423.023 1.63941L423.7 3.18795ZM430.68 1.76781C433.175 1.76781 435.499 2.243 437.661 3.18795L438.338 1.63941C435.952 0.596534 433.396 0.0778097 430.68 0.0778097V1.76781ZM437.661 3.18795C439.834 4.13786 441.738 5.45988 443.378 7.15715L444.593 5.98292C442.799 4.12619 440.712 2.67732 438.338 1.63941L437.661 3.18795ZM443.38 7.15973C445.019 8.84163 446.3 10.8051 447.224 13.0575L448.788 12.4161C447.784 9.96998 446.385 7.8223 444.59 5.98034L443.38 7.15973ZM447.227 13.0636C448.16 15.2883 448.629 17.6838 448.629 20.2589H450.319C450.319 17.4729 449.81 14.8537 448.785 12.41L447.227 13.0636ZM448.629 20.2589C448.629 22.8339 448.16 25.2378 447.226 27.4786L448.786 28.1286C449.81 25.6709 450.319 23.045 450.319 20.2589H448.629ZM447.225 27.4811C446.301 29.7192 445.019 31.6845 443.378 33.3832L444.593 34.5575C446.385 32.7023 447.784 30.5564 448.787 28.1261L447.225 27.4811ZM443.38 33.3807C441.74 35.0637 439.836 36.3793 437.661 37.3299L438.338 38.8784C440.711 37.8412 442.797 36.4009 444.59 34.5601L443.38 33.3807ZM437.661 37.3299C435.499 38.2748 433.175 38.75 430.68 38.75V40.44C433.396 40.44 435.952 39.9213 438.338 38.8784L437.661 37.3299ZM430.68 32.0369C432.176 32.0369 433.563 31.7518 434.829 31.1688L434.122 29.6338C433.099 30.1049 431.956 30.3469 430.68 30.3469V32.0369ZM434.825 31.1706C436.096 30.5928 437.189 29.7729 438.098 28.7158L436.816 27.6143C436.068 28.4847 435.174 29.1557 434.126 29.6321L434.825 31.1706ZM438.097 28.7166C439.017 27.6492 439.716 26.4005 440.2 24.9816L438.6 24.4363C438.18 25.6678 437.584 26.7231 436.817 27.6135L438.097 28.7166ZM440.198 24.9869C440.7 23.5452 440.945 21.9663 440.945 20.2589H439.255C439.255 21.8043 439.033 23.192 438.602 24.431L440.198 24.9869ZM440.945 20.2589C440.945 18.5517 440.7 16.9791 440.197 15.5507L438.603 16.1122C439.033 17.3343 439.255 18.7133 439.255 20.2589H440.945ZM440.2 15.5616C439.717 14.1269 439.017 12.8748 438.093 11.8189L436.821 12.9318C437.584 13.8035 438.179 14.8555 438.599 16.1014L440.2 15.5616ZM438.102 11.8296C437.194 10.756 436.099 9.92638 434.825 9.34723L434.126 10.8857C435.171 11.3607 436.064 12.0371 436.812 12.9212L438.102 11.8296ZM434.829 9.34897C433.563 8.76595 432.176 8.48088 430.68 8.48088V10.1709C431.956 10.1709 433.099 10.4129 434.122 10.884L434.829 9.34897ZM430.68 8.48088C429.185 8.48088 427.792 8.76599 426.513 9.34723L427.213 10.8857C428.253 10.4128 429.405 10.1709 430.68 10.1709V8.48088ZM426.509 9.34897C425.252 9.92798 424.161 10.7557 423.241 11.8238L424.521 12.9269C425.288 12.0374 426.185 11.3591 427.216 10.884L426.509 9.34897ZM423.24 11.8246C422.335 12.8776 421.638 14.1249 421.141 15.5535L422.736 16.1094C423.173 14.8575 423.77 13.8008 424.522 12.9261L423.24 11.8246ZM421.139 15.5588C420.653 16.9847 420.416 18.5544 420.416 20.2589H422.106C422.106 18.7106 422.321 17.3287 422.738 16.1041L421.139 15.5588ZM420.416 20.2589C420.416 21.9636 420.653 23.5396 421.138 24.9788L422.739 24.439C422.321 23.1976 422.106 21.807 422.106 20.2589H420.416ZM421.142 24.9897C421.639 26.4025 422.335 27.6464 423.236 28.7108L424.526 27.6192C423.77 26.7259 423.171 25.6658 422.735 24.4282L421.142 24.9897ZM423.245 28.7214C424.165 29.7732 425.255 30.5912 426.509 31.1688L427.216 29.6338C426.182 29.1573 425.283 28.4844 424.517 27.6086L423.245 28.7214ZM426.513 31.1706C427.792 31.7518 429.185 32.0369 430.68 32.0369V30.3469C429.405 30.3469 428.253 30.105 427.213 29.6321L426.513 31.1706ZM460.591 38.8721H459.746C459.746 39.3388 460.124 39.7171 460.591 39.7171V38.8721ZM460.591 1.60048V0.755476C460.124 0.755476 459.746 1.1338 459.746 1.60048H460.591ZM469.288 1.60048L469.999 1.14386C469.843 0.901814 469.575 0.755476 469.288 0.755476V1.60048ZM483.925 24.3927L483.214 24.8493C483.417 25.1649 483.803 25.3091 484.163 25.2035C484.523 25.0979 484.77 24.7677 484.77 24.3927H483.925ZM483.925 1.60048V0.755476C483.459 0.755476 483.08 1.1338 483.08 1.60048H483.925ZM492.622 1.60048H493.467C493.467 1.1338 493.089 0.755476 492.622 0.755476V1.60048ZM492.622 38.8721V39.7171C493.089 39.7171 493.467 39.3388 493.467 38.8721H492.622ZM483.925 38.8721L483.214 39.3288C483.37 39.5708 483.638 39.7171 483.925 39.7171V38.8721ZM469.288 16.08L469.999 15.6233C469.796 15.3078 469.41 15.1635 469.05 15.2691C468.69 15.3748 468.443 15.7049 468.443 16.08H469.288ZM469.288 38.8721V39.7171C469.754 39.7171 470.133 39.3388 470.133 38.8721H469.288ZM461.436 38.8721V1.60048H459.746V38.8721H461.436ZM460.591 2.44548H469.288V0.755476H460.591V2.44548ZM468.577 2.0571L483.214 24.8493L484.636 23.936L469.999 1.14386L468.577 2.0571ZM484.77 24.3927V1.60048H483.08V24.3927H484.77ZM483.925 2.44548H492.622V0.755476H483.925V2.44548ZM491.777 1.60048V38.8721H493.467V1.60048H491.777ZM492.622 38.0271H483.925V39.7171H492.622V38.0271ZM484.636 38.4155L469.999 15.6233L468.577 16.5366L483.214 39.3288L484.636 38.4155ZM468.443 16.08V38.8721H470.133V16.08H468.443ZM469.288 38.0271H460.591V39.7171H469.288V38.0271ZM506.625 38.8721H505.78C505.78 39.3388 506.158 39.7171 506.625 39.7171V38.8721ZM506.625 1.60048V0.755476C506.158 0.755476 505.78 1.1338 505.78 1.60048H506.625ZM528.039 1.60048H528.884C528.884 1.1338 528.506 0.755476 528.039 0.755476V1.60048ZM528.039 9.23552V10.0805C528.506 10.0805 528.884 9.7022 528.884 9.23552H528.039ZM515.321 9.23552V8.39052C514.855 8.39052 514.476 8.76884 514.476 9.23552H515.321ZM515.321 16.3736H514.476C514.476 16.8403 514.855 17.2186 515.321 17.2186V16.3736ZM527.497 16.3736H528.342C528.342 15.9069 527.963 15.5286 527.497 15.5286V16.3736ZM527.497 24.0087V24.8537C527.963 24.8537 528.342 24.4753 528.342 24.0087H527.497ZM515.321 24.0087V23.1637C514.855 23.1637 514.476 23.542 514.476 24.0087H515.321ZM515.321 31.2371H514.476C514.476 31.7038 514.855 32.0821 515.321 32.0821V31.2371ZM528.039 31.2371H528.884C528.884 30.7704 528.506 30.3921 528.039 30.3921V31.2371ZM528.039 38.8721V39.7171C528.506 39.7171 528.884 39.3388 528.884 38.8721H528.039ZM507.47 38.8721V1.60048H505.78V38.8721H507.47ZM506.625 2.44548H528.039V0.755476H506.625V2.44548ZM527.194 1.60048V9.23552H528.884V1.60048H527.194ZM528.039 8.39052H515.321V10.0805H528.039V8.39052ZM514.476 9.23552V16.3736H516.166V9.23552H514.476ZM515.321 17.2186H527.497V15.5286H515.321V17.2186ZM526.652 16.3736V24.0087H528.342V16.3736H526.652ZM527.497 23.1637H515.321V24.8537H527.497V23.1637ZM514.476 24.0087V31.2371H516.166V24.0087H514.476ZM515.321 32.0821H528.039V30.3921H515.321V32.0821ZM527.194 31.2371V38.8721H528.884V31.2371H527.194ZM528.039 38.0271H506.625V39.7171H528.039V38.0271ZM541.143 38.8721H540.298C540.298 39.3388 540.677 39.7171 541.143 39.7171V38.8721ZM541.143 1.60048V0.755476C540.677 0.755476 540.298 1.1338 540.298 1.60048H541.143ZM561.654 2.9784L561.288 3.74011L561.293 3.74242L561.654 2.9784ZM566.759 18.113L565.978 17.7896L565.977 17.7936L566.759 18.113ZM564.139 21.9305L564.711 22.552L564.716 22.5479L564.139 21.9305ZM559.96 24.3701L559.682 23.5722C559.42 23.6635 559.219 23.8775 559.145 24.1448C559.071 24.4121 559.133 24.6987 559.311 24.9116L559.96 24.3701ZM572.067 38.8721V39.7171C572.395 39.7171 572.694 39.5273 572.833 39.2302C572.972 38.9331 572.926 38.5824 572.716 38.3306L572.067 38.8721ZM561.021 38.8721L560.352 39.3876C560.512 39.5954 560.759 39.7171 561.021 39.7171V38.8721ZM550.676 25.4318L551.345 24.9163C551.185 24.7085 550.938 24.5868 550.676 24.5868V25.4318ZM549.84 25.4318V24.5868C549.373 24.5868 548.995 24.9651 548.995 25.4318H549.84ZM549.84 38.8721V39.7171C550.307 39.7171 550.685 39.3388 550.685 38.8721H549.84ZM549.84 18.2033H548.995C548.995 18.67 549.373 19.0483 549.84 19.0483V18.2033ZM555.623 17.6612L555.924 18.4509L555.934 18.4466L555.623 17.6612ZM557.769 16.0122L557.072 15.5334L557.066 15.5435L557.769 16.0122ZM556.865 9.77765L557.374 9.10277L557.374 9.10276L556.865 9.77765ZM549.84 8.53527V7.69027C549.373 7.69027 548.995 8.06859 548.995 8.53527H549.84ZM541.988 38.8721V1.60048H540.298V38.8721H541.988ZM541.143 2.44548H554.922V0.755476H541.143V2.44548ZM554.922 2.44548C557.398 2.44548 559.512 2.88678 561.288 3.74009L562.02 2.2167C559.971 1.23279 557.598 0.755476 554.922 0.755476V2.44548ZM561.293 3.74242C563.065 4.57954 564.42 5.78135 565.384 7.35102L566.824 6.46671C565.68 4.60288 564.068 3.18437 562.015 2.21437L561.293 3.74242ZM565.384 7.35102C566.341 8.90915 566.84 10.8268 566.84 13.1434H568.53C568.53 10.5808 567.976 8.34209 566.824 6.46671L565.384 7.35102ZM566.84 13.1434C566.84 14.8689 566.548 16.4137 565.978 17.7896L567.54 18.4363C568.205 16.8305 568.53 15.0622 568.53 13.1434H566.84ZM565.977 17.7936C565.42 19.1584 564.616 20.3287 563.562 21.313L564.716 22.5479C565.951 21.3939 566.894 20.0191 567.541 18.4323L565.977 17.7936ZM563.566 21.3089C562.516 22.2761 561.227 23.0335 559.682 23.5722L560.238 25.168C561.976 24.5622 563.472 23.6932 564.711 22.552L563.566 21.3089ZM559.311 24.9116L571.419 39.4137L572.716 38.3306L560.608 23.8285L559.311 24.9116ZM572.067 38.0271H561.021V39.7171H572.067V38.0271ZM561.691 38.3567L551.345 24.9163L550.006 25.9472L560.352 39.3876L561.691 38.3567ZM550.676 24.5868H549.84V26.2768H550.676V24.5868ZM548.995 25.4318V38.8721H550.685V25.4318H548.995ZM549.84 38.0271H541.143V39.7171H549.84V38.0271ZM549.84 19.0483H552.121V17.3583H549.84V19.0483ZM552.121 19.0483C553.575 19.0483 554.851 18.8595 555.924 18.4508L555.322 16.8715C554.497 17.1857 553.439 17.3583 552.121 17.3583V19.0483ZM555.934 18.4466C557.014 18.0181 557.879 17.3703 558.472 16.4809L557.066 15.5435C556.695 16.0998 556.129 16.5513 555.311 16.8758L555.934 18.4466ZM558.465 16.4909C559.074 15.6048 559.359 14.5575 559.359 13.3919H557.669C557.669 14.2744 557.457 14.9739 557.072 15.5335L558.465 16.4909ZM559.359 13.3919C559.359 11.5903 558.718 10.1159 557.374 9.10277L556.357 10.4525C557.211 11.0959 557.669 12.031 557.669 13.3919H559.359ZM557.374 9.10276C556.071 8.12121 554.281 7.69027 552.121 7.69027V9.38027C554.088 9.38027 555.461 9.77758 556.357 10.4525L557.374 9.10276ZM552.121 7.69027H549.84V9.38027H552.121V7.69027ZM548.995 8.53527V18.2033H550.685V8.53527H548.995Z" fill="white"/>
</svg>
